SplineFontDB: 3.0
FontName: pico
FullName: pico
FamilyName: pico
Weight: Medium
Copyright: zo
Version: 1.0
ItalicAngle: 0
UnderlinePosition: -100
UnderlineWidth: 50
Ascent: 384
Descent: 128
InvalidEm: 0
sfntRevision: 0x00010000
woffMajor: 1
woffMinor: 0
LayerCount: 2
Layer: 0 0 "Back" 1
Layer: 1 0 "Fore" 0
XUID: [1021 235 626921049 11168194]
StyleMap: 0x0000
FSType: 0
OS2Version: 4
OS2_WeightWidthSlopeOnly: 0
OS2_UseTypoMetrics: 1
CreationTime: -2082844800
ModificationTime: 1518874075
PfmFamily: 81
TTFWeight: 500
TTFWidth: 5
LineGap: 0
VLineGap: 0
Panose: 2 0 6 3 0 0 0 0 0 0
OS2TypoAscent: 320
OS2TypoAOffset: 0
OS2TypoDescent: -64
OS2TypoDOffset: 0
OS2TypoLinegap: 0
OS2WinAscent: 320
OS2WinAOffset: 0
OS2WinDescent: 64
OS2WinDOffset: 0
HheadAscent: 320
HheadAOffset: 0
HheadDescent: -64
HheadDOffset: 0
OS2SubXSize: 650
OS2SubYSize: 700
OS2SubXOff: 0
OS2SubYOff: 140
OS2SupXSize: 650
OS2SupYSize: 700
OS2SupXOff: 0
OS2SupYOff: 480
OS2StrikeYSize: 49
OS2StrikeYPos: 258
OS2CapHeight: 256
OS2XHeight: 192
OS2Vendor: 'XXXX'
OS2CodePages: 00000001.00000000
OS2UnicodeRanges: 00000003.00000000.00000000.00000000
MarkAttachClasses: 1
DEI: 91125
LangName: 1033 "" "" "" "" "" "1.0" "" "" "" "zo" "" "" "www.zombect.ro"
Encoding: UnicodeBmp
Compacted: 1
UnicodeInterp: none
NameList: Adobe Glyph List
DisplaySize: -48
AntiAlias: 0
FitToEm: 1
WinInfo: 0 11 14
BeginPrivate: 3
BlueValues 21 [0 0 192 192 256 256]
OtherBlues 9 [-64 -64]
BlueShift 1 0
EndPrivate
BeginChars: 65536 97

StartChar: exclam
Encoding: 33 33 1
Width: 128
GlyphClass: 2
Flags: W
LayerCount: 2
Fore
SplineSet
0 0 m 1
 64 0 l 1
 64 64 l 1
 0 64 l 1
 0 0 l 1
0 128 m 1
 64 128 l 1
 64 192 l 1
 64 256 l 1
 64 320 l 1
 0 320 l 1
 0 256 l 1
 0 192 l 1
 0 128 l 1
EndSplineSet
EndChar

StartChar: quotedbl
Encoding: 34 34 2
Width: 256
GlyphClass: 2
Flags: W
LayerCount: 2
Fore
SplineSet
128 128 m 1
 192 128 l 1
 192 192 l 1
 192 256 l 1
 128 256 l 1
 128 192 l 1
 128 128 l 1
0 128 m 1
 64 128 l 1
 64 192 l 1
 64 256 l 1
 0 256 l 1
 0 192 l 1
 0 128 l 1
EndSplineSet
EndChar

StartChar: numbersign
Encoding: 35 35 3
Width: 384
GlyphClass: 2
Flags: W
LayerCount: 2
Fore
SplineSet
192 0 m 1
 256 0 l 1
 256 64 l 1
 320 64 l 1
 320 128 l 1
 256 128 l 1
 256 192 l 1
 320 192 l 1
 320 256 l 1
 256 256 l 1
 256 320 l 1
 192 320 l 1
 192 256 l 1
 128 256 l 1
 128 320 l 1
 64 320 l 1
 64 256 l 1
 0 256 l 1
 0 192 l 1
 64 192 l 1
 64 128 l 1
 0 128 l 1
 0 64 l 1
 64 64 l 1
 64 0 l 1
 128 0 l 1
 128 64 l 1
 192 64 l 1
 192 0 l 1
192 128 m 1
 128 128 l 1
 128 192 l 1
 192 192 l 1
 192 128 l 1
EndSplineSet
EndChar

StartChar: dollar
Encoding: 36 36 4
Width: 256
GlyphClass: 2
Flags: W
LayerCount: 2
Fore
SplineSet
64 -64 m 1
 128 -64 l 1
 128 0 l 1
 192 0 l 1
 192 64 l 1
 192 128 l 1
 128 128 l 1
 64 128 l 1
 64 192 l 1
 128 192 l 1
 192 192 l 1
 192 256 l 1
 128 256 l 1
 128 320 l 1
 64 320 l 1
 64 256 l 1
 64 192 l 1
 0 192 l 1
 0 128 l 1
 64 128 l 1
 64 64 l 1
 0 64 l 1
 0 0 l 1
 64 0 l 1
 64 -64 l 1
EndSplineSet
EndChar

StartChar: percent
Encoding: 37 37 5
Width: 320
GlyphClass: 2
Flags: W
LayerCount: 2
Fore
SplineSet
0 0 m 1
 64 0 l 1
 64 64 l 1
 128 64 l 1
 128 128 l 1
 192 128 l 1
 192 64 l 1
 128 64 l 1
 128 0 l 1
 192 0 l 1
 256 0 l 1
 256 64 l 1
 256 128 l 1
 192 128 l 1
 192 192 l 1
 256 192 l 1
 256 256 l 1
 192 256 l 1
 192 192 l 1
 128 192 l 1
 128 128 l 1
 64 128 l 1
 64 192 l 1
 128 192 l 1
 128 256 l 1
 64 256 l 1
 0 256 l 1
 0 192 l 1
 0 128 l 1
 64 128 l 1
 64 64 l 1
 0 64 l 1
 0 0 l 1
EndSplineSet
EndChar

StartChar: ampersand
Encoding: 38 38 6
Width: 384
GlyphClass: 2
Flags: W
LayerCount: 2
Fore
SplineSet
256 0 m 1
 320 0 l 1
 320 64 l 1
 256 64 l 1
 256 128 l 1
 320 128 l 1
 320 192 l 1
 256 192 l 1
 256 128 l 1
 192 128 l 1
 192 64 l 1
 128 64 l 1
 64 64 l 1
 64 128 l 1
 128 128 l 1
 192 128 l 1
 192 192 l 1
 192 256 l 1
 128 256 l 1
 128 192 l 1
 64 192 l 1
 64 256 l 1
 128 256 l 1
 128 320 l 1
 64 320 l 1
 64 256 l 1
 0 256 l 1
 0 192 l 1
 64 192 l 1
 64 128 l 1
 0 128 l 1
 0 64 l 1
 64 64 l 1
 64 0 l 1
 128 0 l 1
 192 0 l 1
 192 64 l 1
 256 64 l 1
 256 0 l 1
EndSplineSet
EndChar

StartChar: quotesingle
Encoding: 39 39 7
Width: 128
GlyphClass: 2
Flags: W
LayerCount: 2
Fore
SplineSet
0 128 m 1
 64 128 l 1
 64 192 l 1
 64 256 l 1
 0 256 l 1
 0 192 l 1
 0 128 l 1
EndSplineSet
EndChar

StartChar: parenleft
Encoding: 40 40 8
Width: 192
GlyphClass: 2
Flags: W
LayerCount: 2
Fore
SplineSet
64 -64 m 1
 128 -64 l 1
 128 0 l 1
 64 0 l 1
 64 64 l 1
 64 128 l 1
 64 192 l 1
 128 192 l 1
 128 256 l 1
 64 256 l 1
 64 192 l 1
 0 192 l 1
 0 128 l 1
 0 64 l 1
 0 0 l 1
 64 0 l 1
 64 -64 l 1
EndSplineSet
EndChar

StartChar: parenright
Encoding: 41 41 9
Width: 192
GlyphClass: 2
Flags: W
LayerCount: 2
Fore
SplineSet
0 -64 m 1
 64 -64 l 1
 64 0 l 1
 128 0 l 1
 128 64 l 1
 128 128 l 1
 128 192 l 1
 64 192 l 1
 64 256 l 1
 0 256 l 1
 0 192 l 1
 64 192 l 1
 64 128 l 1
 64 64 l 1
 64 0 l 1
 0 0 l 1
 0 -64 l 1
EndSplineSet
EndChar

StartChar: asterisk
Encoding: 42 42 10
Width: 384
GlyphClass: 2
Flags: W
LayerCount: 2
Fore
SplineSet
256 128 m 1
 320 128 l 1
 320 192 l 1
 256 192 l 1
 256 256 l 1
 320 256 l 1
 320 320 l 1
 256 320 l 1
 256 256 l 1
 192 256 l 1
 192 320 l 1
 128 320 l 1
 128 256 l 1
 64 256 l 1
 64 320 l 1
 0 320 l 1
 0 256 l 1
 64 256 l 1
 64 192 l 1
 0 192 l 1
 0 128 l 1
 64 128 l 1
 64 192 l 1
 128 192 l 1
 128 128 l 1
 192 128 l 1
 192 192 l 1
 256 192 l 1
 256 128 l 1
EndSplineSet
EndChar

StartChar: plus
Encoding: 43 43 11
Width: 256
GlyphClass: 2
Flags: W
LayerCount: 2
Fore
SplineSet
64 0 m 1
 128 0 l 1
 128 64 l 1
 192 64 l 1
 192 128 l 1
 128 128 l 1
 128 192 l 1
 64 192 l 1
 64 128 l 1
 0 128 l 1
 0 64 l 1
 64 64 l 1
 64 0 l 1
EndSplineSet
EndChar

StartChar: comma
Encoding: 44 44 12
Width: 128
GlyphClass: 2
Flags: W
LayerCount: 2
Fore
SplineSet
0 -64 m 1
 64 -64 l 1
 64 0 l 1
 64 64 l 1
 0 64 l 1
 0 0 l 1
 0 -64 l 1
EndSplineSet
EndChar

StartChar: hyphen
Encoding: 45 45 13
Width: 256
GlyphClass: 2
Flags: W
LayerCount: 2
Fore
SplineSet
128 128 m 1
 64 128 l 1
 0 128 l 1
 0 64 l 1
 64 64 l 1
 128 64 l 1
 192 64 l 1
 192 128 l 1
 128 128 l 1
EndSplineSet
EndChar

StartChar: period
Encoding: 46 46 14
Width: 128
GlyphClass: 2
Flags: W
LayerCount: 2
Fore
SplineSet
0 0 m 1
 64 0 l 1
 64 64 l 1
 0 64 l 1
 0 0 l 1
EndSplineSet
EndChar

StartChar: slash
Encoding: 47 47 15
Width: 320
GlyphClass: 2
Flags: W
LayerCount: 2
Fore
SplineSet
0 -64 m 1
 64 -64 l 1
 64 0 l 1
 128 0 l 1
 128 64 l 1
 192 64 l 1
 192 128 l 1
 256 128 l 1
 256 192 l 1
 192 192 l 1
 192 128 l 1
 128 128 l 1
 128 64 l 1
 64 64 l 1
 64 0 l 1
 0 0 l 1
 0 -64 l 1
EndSplineSet
EndChar

StartChar: zero
Encoding: 48 48 16
Width: 256
GlyphClass: 2
Flags: W
LayerCount: 2
Fore
SplineSet
64 0 m 1
 128 0 l 1
 128 64 l 1
 192 64 l 1
 192 128 l 1
 192 192 l 1
 128 192 l 1
 128 128 l 1
 128 64 l 1
 64 64 l 1
 64 128 l 1
 64 192 l 1
 128 192 l 1
 128 256 l 1
 64 256 l 1
 64 192 l 1
 0 192 l 1
 0 128 l 1
 0 64 l 1
 64 64 l 1
 64 0 l 1
EndSplineSet
EndChar

StartChar: one
Encoding: 49 49 17
Width: 256
GlyphClass: 2
Flags: W
LayerCount: 2
Fore
SplineSet
128 0 m 1
 192 0 l 1
 192 64 l 1
 128 64 l 1
 128 128 l 1
 128 192 l 1
 128 256 l 1
 64 256 l 1
 64 192 l 1
 0 192 l 1
 0 128 l 1
 64 128 l 1
 64 64 l 1
 0 64 l 1
 0 0 l 1
 64 0 l 1
 128 0 l 1
EndSplineSet
EndChar

StartChar: two
Encoding: 50 50 18
Width: 256
GlyphClass: 2
Flags: W
LayerCount: 2
Fore
SplineSet
128 0 m 1
 192 0 l 1
 192 64 l 1
 128 64 l 1
 128 128 l 1
 192 128 l 1
 192 192 l 1
 128 192 l 1
 128 256 l 1
 64 256 l 1
 0 256 l 1
 0 192 l 1
 64 192 l 1
 128 192 l 1
 128 128 l 1
 64 128 l 1
 64 64 l 1
 0 64 l 1
 0 0 l 1
 64 0 l 1
 128 0 l 1
EndSplineSet
EndChar

StartChar: three
Encoding: 51 51 19
Width: 256
GlyphClass: 2
Flags: W
LayerCount: 2
Fore
SplineSet
128 0 m 1
 192 0 l 1
 192 64 l 1
 192 128 l 1
 192 192 l 1
 128 192 l 1
 128 256 l 1
 64 256 l 1
 0 256 l 1
 0 192 l 1
 64 192 l 1
 128 192 l 1
 128 128 l 1
 64 128 l 1
 64 64 l 1
 0 64 l 1
 0 0 l 1
 64 0 l 1
 128 0 l 1
EndSplineSet
EndChar

StartChar: four
Encoding: 52 52 20
Width: 256
GlyphClass: 2
Flags: W
LayerCount: 2
Fore
SplineSet
128 0 m 1
 192 0 l 1
 192 64 l 1
 192 128 l 1
 192 192 l 1
 192 256 l 1
 128 256 l 1
 128 192 l 1
 128 128 l 1
 64 128 l 1
 64 192 l 1
 64 256 l 1
 0 256 l 1
 0 192 l 1
 0 128 l 1
 64 128 l 1
 64 64 l 1
 128 64 l 1
 128 0 l 1
EndSplineSet
EndChar

StartChar: five
Encoding: 53 53 21
Width: 256
GlyphClass: 2
Flags: W
LayerCount: 2
Fore
SplineSet
64 64 m 1
 0 64 l 1
 0 0 l 1
 64 0 l 1
 128 0 l 1
 128 64 l 1
 192 64 l 1
 192 128 l 1
 128 128 l 1
 128 192 l 1
 192 192 l 1
 192 256 l 1
 128 256 l 1
 64 256 l 1
 0 256 l 1
 0 192 l 1
 0 128 l 1
 64 128 l 1
 128 128 l 1
 128 64 l 1
 64 64 l 1
EndSplineSet
EndChar

StartChar: six
Encoding: 54 54 22
Width: 256
GlyphClass: 2
Flags: W
LayerCount: 2
Fore
SplineSet
128 0 m 1
 192 0 l 1
 192 64 l 1
 192 128 l 1
 128 128 l 1
 64 128 l 1
 64 192 l 1
 128 192 l 1
 192 192 l 1
 192 256 l 1
 128 256 l 1
 64 256 l 1
 64 192 l 1
 0 192 l 1
 0 128 l 1
 0 64 l 1
 0 0 l 1
 64 0 l 1
 128 0 l 1
EndSplineSet
EndChar

StartChar: seven
Encoding: 55 55 23
Width: 256
GlyphClass: 2
Flags: W
LayerCount: 2
Fore
SplineSet
64 0 m 1
 128 0 l 1
 128 64 l 1
 128 128 l 1
 192 128 l 1
 192 192 l 1
 192 256 l 1
 128 256 l 1
 64 256 l 1
 0 256 l 1
 0 192 l 1
 64 192 l 1
 128 192 l 1
 128 128 l 1
 64 128 l 1
 64 64 l 1
 64 0 l 1
EndSplineSet
EndChar

StartChar: eight
Encoding: 56 56 24
Width: 256
GlyphClass: 2
Flags: W
LayerCount: 2
Fore
SplineSet
128 0 m 1
 192 0 l 1
 192 64 l 1
 192 128 l 1
 192 192 l 1
 128 192 l 1
 128 128 l 1
 64 128 l 1
 64 192 l 1
 128 192 l 1
 128 256 l 1
 64 256 l 1
 64 192 l 1
 0 192 l 1
 0 128 l 1
 0 64 l 1
 0 0 l 1
 64 0 l 1
 128 0 l 1
EndSplineSet
EndChar

StartChar: nine
Encoding: 57 57 25
Width: 256
GlyphClass: 2
Flags: W
LayerCount: 2
Fore
SplineSet
128 0 m 1
 192 0 l 1
 192 64 l 1
 192 128 l 1
 192 192 l 1
 128 192 l 1
 128 128 l 1
 64 128 l 1
 64 192 l 1
 128 192 l 1
 128 256 l 1
 64 256 l 1
 64 192 l 1
 0 192 l 1
 0 128 l 1
 0 64 l 1
 64 64 l 1
 128 64 l 1
 128 0 l 1
EndSplineSet
EndChar

StartChar: colon
Encoding: 58 58 26
Width: 128
GlyphClass: 2
Flags: W
LayerCount: 2
Fore
SplineSet
0 0 m 1
 64 0 l 1
 64 64 l 1
 0 64 l 1
 0 0 l 1
0 128 m 1
 64 128 l 1
 64 192 l 1
 0 192 l 1
 0 128 l 1
EndSplineSet
EndChar

StartChar: semicolon
Encoding: 59 59 27
Width: 128
GlyphClass: 2
Flags: W
LayerCount: 2
Fore
SplineSet
0 -64 m 1
 64 -64 l 1
 64 0 l 1
 64 64 l 1
 0 64 l 1
 0 0 l 1
 0 -64 l 1
0 128 m 1
 64 128 l 1
 64 192 l 1
 0 192 l 1
 0 128 l 1
EndSplineSet
EndChar

StartChar: less
Encoding: 60 60 28
Width: 192
GlyphClass: 2
Flags: W
LayerCount: 2
Fore
SplineSet
64 0 m 1
 128 0 l 1
 128 64 l 1
 64 64 l 1
 64 128 l 1
 128 128 l 1
 128 192 l 1
 64 192 l 1
 64 128 l 1
 0 128 l 1
 0 64 l 1
 64 64 l 1
 64 0 l 1
EndSplineSet
EndChar

StartChar: equal
Encoding: 61 61 29
Width: 256
GlyphClass: 2
Flags: W
LayerCount: 2
Fore
SplineSet
128 64 m 1
 64 64 l 1
 0 64 l 1
 0 0 l 1
 64 0 l 1
 128 0 l 1
 192 0 l 1
 192 64 l 1
 128 64 l 1
128 192 m 1
 64 192 l 1
 0 192 l 1
 0 128 l 1
 64 128 l 1
 128 128 l 1
 192 128 l 1
 192 192 l 1
 128 192 l 1
EndSplineSet
EndChar

StartChar: greater
Encoding: 62 62 30
Width: 192
GlyphClass: 2
Flags: W
LayerCount: 2
Fore
SplineSet
0 0 m 1
 64 0 l 1
 64 64 l 1
 128 64 l 1
 128 128 l 1
 64 128 l 1
 64 192 l 1
 0 192 l 1
 0 128 l 1
 64 128 l 1
 64 64 l 1
 0 64 l 1
 0 0 l 1
EndSplineSet
EndChar

StartChar: question
Encoding: 63 63 31
Width: 256
GlyphClass: 2
Flags: W
LayerCount: 2
Fore
SplineSet
128 128 m 1
 192 128 l 1
 192 192 l 1
 192 256 l 1
 128 256 l 1
 128 320 l 1
 64 320 l 1
 0 320 l 1
 0 256 l 1
 64 256 l 1
 128 256 l 1
 128 192 l 1
 64 192 l 1
 64 128 l 1
 128 128 l 1
64 0 m 1
 128 0 l 1
 128 64 l 1
 64 64 l 1
 64 0 l 1
EndSplineSet
EndChar

StartChar: at
Encoding: 64 64 32
Width: 384
GlyphClass: 2
Flags: W
LayerCount: 2
Fore
SplineSet
192 0 m 1
 256 0 l 1
 256 64 l 1
 320 64 l 1
 320 128 l 1
 320 192 l 1
 320 256 l 1
 256 256 l 1
 256 192 l 1
 192 192 l 1
 128 192 l 1
 128 128 l 1
 128 64 l 1
 64 64 l 1
 64 128 l 1
 64 192 l 1
 64 256 l 1
 128 256 l 1
 192 256 l 1
 256 256 l 1
 256 320 l 1
 192 320 l 1
 128 320 l 1
 64 320 l 1
 64 256 l 1
 0 256 l 1
 0 192 l 1
 0 128 l 1
 0 64 l 1
 64 64 l 1
 64 0 l 1
 128 0 l 1
 192 0 l 1
EndSplineSet
EndChar

StartChar: A
Encoding: 65 65 33
Width: 256
GlyphClass: 2
Flags: W
LayerCount: 2
Fore
SplineSet
128 0 m 1
 192 0 l 1
 192 64 l 1
 192 128 l 1
 192 192 l 1
 192 256 l 1
 128 256 l 1
 64 256 l 1
 0 256 l 1
 0 192 l 1
 0 128 l 1
 0 64 l 1
 0 0 l 1
 64 0 l 1
 64 64 l 1
 128 64 l 1
 128 0 l 1
128 128 m 1
 64 128 l 1
 64 192 l 1
 128 192 l 1
 128 128 l 1
EndSplineSet
EndChar

StartChar: B
Encoding: 66 66 34
Width: 256
GlyphClass: 2
Flags: W
LayerCount: 2
Fore
SplineSet
128 0 m 1
 192 0 l 1
 192 64 l 1
 192 128 l 1
 192 192 l 1
 128 192 l 1
 128 256 l 1
 64 256 l 1
 0 256 l 1
 0 192 l 1
 0 128 l 1
 0 64 l 1
 0 0 l 1
 64 0 l 1
 128 0 l 1
128 64 m 1
 64 64 l 1
 64 128 l 1
 128 128 l 1
 128 64 l 1
EndSplineSet
EndChar

StartChar: C
Encoding: 67 67 35
Width: 256
GlyphClass: 2
Flags: W
LayerCount: 2
Fore
SplineSet
128 64 m 1
 64 64 l 1
 64 128 l 1
 64 192 l 1
 128 192 l 1
 192 192 l 1
 192 256 l 1
 128 256 l 1
 64 256 l 1
 0 256 l 1
 0 192 l 1
 0 128 l 1
 0 64 l 1
 0 0 l 1
 64 0 l 1
 128 0 l 1
 192 0 l 1
 192 64 l 1
 128 64 l 1
EndSplineSet
EndChar

StartChar: D
Encoding: 68 68 36
Width: 256
GlyphClass: 2
Flags: W
LayerCount: 2
Fore
SplineSet
128 0 m 1
 192 0 l 1
 192 64 l 1
 192 128 l 1
 192 192 l 1
 128 192 l 1
 128 128 l 1
 128 64 l 1
 64 64 l 1
 64 128 l 1
 64 192 l 1
 128 192 l 1
 128 256 l 1
 64 256 l 1
 0 256 l 1
 0 192 l 1
 0 128 l 1
 0 64 l 1
 0 0 l 1
 64 0 l 1
 128 0 l 1
EndSplineSet
EndChar

StartChar: E
Encoding: 69 69 37
Width: 256
GlyphClass: 2
Flags: W
LayerCount: 2
Fore
SplineSet
128 64 m 1
 64 64 l 1
 64 128 l 1
 128 128 l 1
 128 192 l 1
 192 192 l 1
 192 256 l 1
 128 256 l 1
 64 256 l 1
 0 256 l 1
 0 192 l 1
 0 128 l 1
 0 64 l 1
 0 0 l 1
 64 0 l 1
 128 0 l 1
 192 0 l 1
 192 64 l 1
 128 64 l 1
EndSplineSet
EndChar

StartChar: F
Encoding: 70 70 38
Width: 256
GlyphClass: 2
Flags: W
LayerCount: 2
Fore
SplineSet
0 0 m 1
 64 0 l 1
 64 64 l 1
 64 128 l 1
 128 128 l 1
 128 192 l 1
 192 192 l 1
 192 256 l 1
 128 256 l 1
 64 256 l 1
 0 256 l 1
 0 192 l 1
 0 128 l 1
 0 64 l 1
 0 0 l 1
EndSplineSet
EndChar

StartChar: G
Encoding: 71 71 39
Width: 256
GlyphClass: 2
Flags: W
LayerCount: 2
Fore
SplineSet
128 0 m 1
 192 0 l 1
 192 64 l 1
 192 128 l 1
 128 128 l 1
 128 64 l 1
 64 64 l 1
 64 128 l 1
 64 192 l 1
 128 192 l 1
 192 192 l 1
 192 256 l 1
 128 256 l 1
 64 256 l 1
 0 256 l 1
 0 192 l 1
 0 128 l 1
 0 64 l 1
 0 0 l 1
 64 0 l 1
 128 0 l 1
EndSplineSet
EndChar

StartChar: H
Encoding: 72 72 40
Width: 256
GlyphClass: 2
Flags: W
LayerCount: 2
Fore
SplineSet
128 0 m 1
 192 0 l 1
 192 64 l 1
 192 128 l 1
 192 192 l 1
 192 256 l 1
 128 256 l 1
 128 192 l 1
 64 192 l 1
 64 256 l 1
 0 256 l 1
 0 192 l 1
 0 128 l 1
 0 64 l 1
 0 0 l 1
 64 0 l 1
 64 64 l 1
 64 128 l 1
 128 128 l 1
 128 64 l 1
 128 0 l 1
EndSplineSet
EndChar

StartChar: I
Encoding: 73 73 41
Width: 256
GlyphClass: 2
Flags: W
LayerCount: 2
Fore
SplineSet
128 0 m 1
 192 0 l 1
 192 64 l 1
 128 64 l 1
 128 128 l 1
 128 192 l 1
 192 192 l 1
 192 256 l 1
 128 256 l 1
 64 256 l 1
 0 256 l 1
 0 192 l 1
 64 192 l 1
 64 128 l 1
 64 64 l 1
 0 64 l 1
 0 0 l 1
 64 0 l 1
 128 0 l 1
EndSplineSet
EndChar

StartChar: J
Encoding: 74 74 42
Width: 256
GlyphClass: 2
Flags: W
LayerCount: 2
Fore
SplineSet
128 0 m 1
 192 0 l 1
 192 64 l 1
 192 128 l 1
 192 192 l 1
 192 256 l 1
 128 256 l 1
 128 192 l 1
 128 128 l 1
 128 64 l 1
 64 64 l 1
 64 128 l 1
 0 128 l 1
 0 64 l 1
 0 0 l 1
 64 0 l 1
 128 0 l 1
EndSplineSet
EndChar

StartChar: K
Encoding: 75 75 43
Width: 256
GlyphClass: 2
Flags: W
LayerCount: 2
Fore
SplineSet
128 0 m 1
 192 0 l 1
 192 64 l 1
 128 64 l 1
 128 128 l 1
 128 192 l 1
 192 192 l 1
 192 256 l 1
 128 256 l 1
 128 192 l 1
 64 192 l 1
 64 256 l 1
 0 256 l 1
 0 192 l 1
 0 128 l 1
 0 64 l 1
 0 0 l 1
 64 0 l 1
 64 64 l 1
 128 64 l 1
 128 0 l 1
EndSplineSet
EndChar

StartChar: L
Encoding: 76 76 44
Width: 256
GlyphClass: 2
Flags: W
LayerCount: 2
Fore
SplineSet
128 64 m 1
 64 64 l 1
 64 128 l 1
 64 192 l 1
 64 256 l 1
 0 256 l 1
 0 192 l 1
 0 128 l 1
 0 64 l 1
 0 0 l 1
 64 0 l 1
 128 0 l 1
 192 0 l 1
 192 64 l 1
 128 64 l 1
EndSplineSet
EndChar

StartChar: M
Encoding: 77 77 45
Width: 384
GlyphClass: 2
Flags: W
LayerCount: 2
Fore
SplineSet
256 0 m 1
 320 0 l 1
 320 64 l 1
 320 128 l 1
 320 192 l 1
 320 256 l 1
 256 256 l 1
 192 256 l 1
 128 256 l 1
 64 256 l 1
 0 256 l 1
 0 192 l 1
 0 128 l 1
 0 64 l 1
 0 0 l 1
 64 0 l 1
 64 64 l 1
 64 128 l 1
 64 192 l 1
 128 192 l 1
 128 128 l 1
 128 64 l 1
 192 64 l 1
 192 128 l 1
 192 192 l 1
 256 192 l 1
 256 128 l 1
 256 64 l 1
 256 0 l 1
EndSplineSet
EndChar

StartChar: N
Encoding: 78 78 46
Width: 256
GlyphClass: 2
Flags: W
LayerCount: 2
Fore
SplineSet
128 0 m 1
 192 0 l 1
 192 64 l 1
 192 128 l 1
 192 192 l 1
 192 256 l 1
 128 256 l 1
 64 256 l 1
 0 256 l 1
 0 192 l 1
 0 128 l 1
 0 64 l 1
 0 0 l 1
 64 0 l 1
 64 64 l 1
 64 128 l 1
 64 192 l 1
 128 192 l 1
 128 128 l 1
 128 64 l 1
 128 0 l 1
EndSplineSet
EndChar

StartChar: O
Encoding: 79 79 47
Width: 256
GlyphClass: 2
Flags: W
LayerCount: 2
Fore
SplineSet
128 0 m 1
 192 0 l 1
 192 64 l 1
 192 128 l 1
 192 192 l 1
 192 256 l 1
 128 256 l 1
 64 256 l 1
 0 256 l 1
 0 192 l 1
 0 128 l 1
 0 64 l 1
 0 0 l 1
 64 0 l 1
 128 0 l 1
128 64 m 1
 64 64 l 1
 64 128 l 1
 64 192 l 1
 128 192 l 1
 128 128 l 1
 128 64 l 1
EndSplineSet
EndChar

StartChar: P
Encoding: 80 80 48
Width: 256
GlyphClass: 2
Flags: W
LayerCount: 2
Fore
SplineSet
0 0 m 1
 64 0 l 1
 64 64 l 1
 128 64 l 1
 192 64 l 1
 192 128 l 1
 192 192 l 1
 192 256 l 1
 128 256 l 1
 64 256 l 1
 0 256 l 1
 0 192 l 1
 0 128 l 1
 0 64 l 1
 0 0 l 1
128 128 m 1
 64 128 l 1
 64 192 l 1
 128 192 l 1
 128 128 l 1
EndSplineSet
EndChar

StartChar: Q
Encoding: 81 81 49
Width: 256
GlyphClass: 2
Flags: W
LayerCount: 2
Fore
SplineSet
64 -64 m 1
 128 -64 l 1
 128 0 l 1
 192 0 l 1
 192 64 l 1
 192 128 l 1
 192 192 l 1
 192 256 l 1
 128 256 l 1
 64 256 l 1
 0 256 l 1
 0 192 l 1
 0 128 l 1
 0 64 l 1
 0 0 l 1
 64 0 l 1
 64 -64 l 1
128 64 m 1
 64 64 l 1
 64 128 l 1
 64 192 l 1
 128 192 l 1
 128 128 l 1
 128 64 l 1
EndSplineSet
EndChar

StartChar: R
Encoding: 82 82 50
Width: 256
GlyphClass: 2
Flags: W
LayerCount: 2
Fore
SplineSet
128 0 m 1
 192 0 l 1
 192 64 l 1
 128 64 l 1
 128 128 l 1
 64 128 l 1
 64 192 l 1
 128 192 l 1
 128 128 l 1
 192 128 l 1
 192 192 l 1
 192 256 l 1
 128 256 l 1
 64 256 l 1
 0 256 l 1
 0 192 l 1
 0 128 l 1
 0 64 l 1
 0 0 l 1
 64 0 l 1
 64 64 l 1
 128 64 l 1
 128 0 l 1
EndSplineSet
EndChar

StartChar: S
Encoding: 83 83 51
Width: 256
GlyphClass: 2
Flags: W
LayerCount: 2
Fore
SplineSet
64 0 m 1
 128 0 l 1
 128 64 l 1
 128 128 l 1
 128 192 l 1
 192 192 l 1
 192 256 l 1
 128 256 l 1
 64 256 l 1
 64 192 l 1
 64 128 l 1
 64 64 l 1
 0 64 l 1
 0 0 l 1
 64 0 l 1
EndSplineSet
EndChar

StartChar: T
Encoding: 84 84 52
Width: 256
GlyphClass: 2
Flags: W
LayerCount: 2
Fore
SplineSet
64 0 m 1
 128 0 l 1
 128 64 l 1
 128 128 l 1
 128 192 l 1
 192 192 l 1
 192 256 l 1
 128 256 l 1
 64 256 l 1
 0 256 l 1
 0 192 l 1
 64 192 l 1
 64 128 l 1
 64 64 l 1
 64 0 l 1
EndSplineSet
EndChar

StartChar: U
Encoding: 85 85 53
Width: 256
GlyphClass: 2
Flags: W
LayerCount: 2
Fore
SplineSet
128 0 m 1
 192 0 l 1
 192 64 l 1
 192 128 l 1
 192 192 l 1
 192 256 l 1
 128 256 l 1
 128 192 l 1
 128 128 l 1
 128 64 l 1
 64 64 l 1
 64 128 l 1
 64 192 l 1
 64 256 l 1
 0 256 l 1
 0 192 l 1
 0 128 l 1
 0 64 l 1
 0 0 l 1
 64 0 l 1
 128 0 l 1
EndSplineSet
EndChar

StartChar: V
Encoding: 86 86 54
Width: 256
GlyphClass: 2
Flags: W
LayerCount: 2
Fore
SplineSet
64 0 m 1
 128 0 l 1
 128 64 l 1
 192 64 l 1
 192 128 l 1
 192 192 l 1
 192 256 l 1
 128 256 l 1
 128 192 l 1
 128 128 l 1
 128 64 l 1
 64 64 l 1
 64 128 l 1
 64 192 l 1
 64 256 l 1
 0 256 l 1
 0 192 l 1
 0 128 l 1
 0 64 l 1
 64 64 l 1
 64 0 l 1
EndSplineSet
EndChar

StartChar: W
Encoding: 87 87 55
Width: 384
GlyphClass: 2
Flags: W
LayerCount: 2
Fore
SplineSet
256 0 m 1
 320 0 l 1
 320 64 l 1
 320 128 l 1
 320 192 l 1
 320 256 l 1
 256 256 l 1
 256 192 l 1
 256 128 l 1
 256 64 l 1
 192 64 l 1
 192 128 l 1
 192 192 l 1
 128 192 l 1
 128 128 l 1
 128 64 l 1
 64 64 l 1
 64 128 l 1
 64 192 l 1
 64 256 l 1
 0 256 l 1
 0 192 l 1
 0 128 l 1
 0 64 l 1
 0 0 l 1
 64 0 l 1
 128 0 l 1
 192 0 l 1
 256 0 l 1
EndSplineSet
EndChar

StartChar: X
Encoding: 88 88 56
Width: 256
GlyphClass: 2
Flags: W
LayerCount: 2
Fore
SplineSet
128 0 m 1
 192 0 l 1
 192 64 l 1
 128 64 l 1
 128 128 l 1
 128 192 l 1
 192 192 l 1
 192 256 l 1
 128 256 l 1
 128 192 l 1
 64 192 l 1
 64 256 l 1
 0 256 l 1
 0 192 l 1
 64 192 l 1
 64 128 l 1
 64 64 l 1
 0 64 l 1
 0 0 l 1
 64 0 l 1
 64 64 l 1
 128 64 l 1
 128 0 l 1
EndSplineSet
EndChar

StartChar: Y
Encoding: 89 89 57
Width: 256
GlyphClass: 2
Flags: W
LayerCount: 2
Fore
SplineSet
0 192 m 1
 0 128 l 1
 64 128 l 1
 64 0 l 1
 128 0 l 1
 128 128 l 1
 192 128 l 1
 192 256 l 1
 128 256 l 1
 128 192 l 1
 64 192 l 1
 64 256 l 1
 0 256 l 1
 0 192 l 1
EndSplineSet
EndChar

StartChar: Z
Encoding: 90 90 58
Width: 256
GlyphClass: 2
Flags: W
LayerCount: 2
Fore
SplineSet
128 64 m 1
 64 64 l 1
 64 128 l 1
 128 128 l 1
 192 128 l 1
 192 192 l 1
 192 256 l 1
 128 256 l 1
 64 256 l 1
 0 256 l 1
 0 192 l 1
 64 192 l 1
 64 128 l 1
 0 128 l 1
 0 64 l 1
 0 0 l 1
 64 0 l 1
 128 0 l 1
 192 0 l 1
 192 64 l 1
 128 64 l 1
EndSplineSet
EndChar

StartChar: bracketleft
Encoding: 91 91 59
Width: 192
GlyphClass: 2
Flags: W
LayerCount: 2
Fore
SplineSet
64 -64 m 1
 128 -64 l 1
 128 0 l 1
 64 0 l 1
 64 64 l 1
 64 128 l 1
 64 192 l 1
 128 192 l 1
 128 256 l 1
 64 256 l 1
 0 256 l 1
 0 192 l 1
 0 128 l 1
 0 64 l 1
 0 0 l 1
 0 -64 l 1
 64 -64 l 1
EndSplineSet
EndChar

StartChar: backslash
Encoding: 92 92 60
Width: 320
GlyphClass: 2
Flags: W
LayerCount: 2
Fore
SplineSet
192 -64 m 1
 256 -64 l 1
 256 0 l 1
 192 0 l 1
 192 64 l 1
 128 64 l 1
 128 128 l 1
 64 128 l 1
 64 192 l 1
 0 192 l 1
 0 128 l 1
 64 128 l 1
 64 64 l 1
 128 64 l 1
 128 0 l 1
 192 0 l 1
 192 -64 l 1
EndSplineSet
EndChar

StartChar: bracketright
Encoding: 93 93 61
Width: 192
GlyphClass: 2
Flags: W
LayerCount: 2
Fore
SplineSet
64 -64 m 1
 128 -64 l 1
 128 0 l 1
 128 64 l 1
 128 128 l 1
 128 192 l 1
 128 256 l 1
 64 256 l 1
 0 256 l 1
 0 192 l 1
 64 192 l 1
 64 128 l 1
 64 64 l 1
 64 0 l 1
 0 0 l 1
 0 -64 l 1
 64 -64 l 1
EndSplineSet
EndChar

StartChar: asciicircum
Encoding: 94 94 62
Width: 256
GlyphClass: 2
Flags: W
LayerCount: 2
Fore
SplineSet
128 128 m 1
 192 128 l 1
 192 192 l 1
 128 192 l 1
 128 256 l 1
 64 256 l 1
 64 192 l 1
 0 192 l 1
 0 128 l 1
 64 128 l 1
 64 192 l 1
 128 192 l 1
 128 128 l 1
EndSplineSet
EndChar

StartChar: underscore
Encoding: 95 95 63
Width: 256
GlyphClass: 2
Flags: W
LayerCount: 2
Fore
SplineSet
128 0 m 1
 64 0 l 1
 0 0 l 1
 0 -64 l 1
 64 -64 l 1
 128 -64 l 1
 192 -64 l 1
 192 0 l 1
 128 0 l 1
EndSplineSet
EndChar

StartChar: grave
Encoding: 96 96 64
Width: 192
GlyphClass: 2
Flags: W
LayerCount: 2
Fore
SplineSet
64 128 m 1
 128 128 l 1
 128 192 l 1
 64 192 l 1
 64 256 l 1
 0 256 l 1
 0 192 l 1
 64 192 l 1
 64 128 l 1
EndSplineSet
EndChar

StartChar: a
Encoding: 97 97 65
Width: 256
GlyphClass: 2
Flags: W
LayerCount: 2
Fore
SplineSet
128 0 m 1
 192 0 l 1
 192 64 l 1
 192 128 l 1
 192 192 l 1
 128 192 l 1
 64 192 l 1
 64 128 l 1
 128 128 l 1
 128 64 l 1
 64 64 l 1
 64 128 l 1
 0 128 l 1
 0 64 l 1
 0 0 l 1
 64 0 l 1
 128 0 l 1
EndSplineSet
EndChar

StartChar: b
Encoding: 98 98 66
Width: 256
GlyphClass: 2
Flags: W
LayerCount: 2
Fore
SplineSet
128 0 m 1
 192 0 l 1
 192 64 l 1
 192 128 l 1
 192 192 l 1
 128 192 l 1
 64 192 l 1
 64 256 l 1
 0 256 l 1
 0 192 l 1
 0 128 l 1
 0 64 l 1
 0 0 l 1
 64 0 l 1
 128 0 l 1
128 64 m 1
 64 64 l 1
 64 128 l 1
 128 128 l 1
 128 64 l 1
EndSplineSet
EndChar

StartChar: c
Encoding: 99 99 67
Width: 256
GlyphClass: 2
Flags: W
LayerCount: 2
Fore
SplineSet
128 64 m 1
 64 64 l 1
 64 128 l 1
 128 128 l 1
 192 128 l 1
 192 192 l 1
 128 192 l 1
 64 192 l 1
 0 192 l 1
 0 128 l 1
 0 64 l 1
 0 0 l 1
 64 0 l 1
 128 0 l 1
 192 0 l 1
 192 64 l 1
 128 64 l 1
EndSplineSet
EndChar

StartChar: d
Encoding: 100 100 68
Width: 256
GlyphClass: 2
Flags: W
LayerCount: 2
Fore
SplineSet
128 0 m 1
 192 0 l 1
 192 64 l 1
 192 128 l 1
 192 192 l 1
 192 256 l 1
 128 256 l 1
 128 192 l 1
 64 192 l 1
 0 192 l 1
 0 128 l 1
 0 64 l 1
 0 0 l 1
 64 0 l 1
 128 0 l 1
128 64 m 1
 64 64 l 1
 64 128 l 1
 128 128 l 1
 128 64 l 1
EndSplineSet
EndChar

StartChar: e
Encoding: 101 101 69
Width: 256
GlyphClass: 2
Flags: W
LayerCount: 2
Fore
SplineSet
128 0 m 1
 192 0 l 1
 192 64 l 1
 128 64 l 1
 128 128 l 1
 192 128 l 1
 192 192 l 1
 128 192 l 1
 64 192 l 1
 0 192 l 1
 0 128 l 1
 0 64 l 1
 0 0 l 1
 64 0 l 1
 128 0 l 1
EndSplineSet
EndChar

StartChar: f
Encoding: 102 102 70
Width: 256
GlyphClass: 2
Flags: W
LayerCount: 2
Fore
SplineSet
0 0 m 1
 64 0 l 1
 64 64 l 1
 128 64 l 1
 128 128 l 1
 192 128 l 1
 192 192 l 1
 128 192 l 1
 64 192 l 1
 0 192 l 1
 0 128 l 1
 0 64 l 1
 0 0 l 1
EndSplineSet
EndChar

StartChar: g
Encoding: 103 103 71
Width: 256
GlyphClass: 2
Flags: W
LayerCount: 2
Fore
SplineSet
128 -64 m 1
 192 -64 l 1
 192 0 l 1
 192 64 l 1
 192 128 l 1
 192 192 l 1
 128 192 l 1
 64 192 l 1
 0 192 l 1
 0 128 l 1
 0 64 l 1
 64 64 l 1
 64 128 l 1
 128 128 l 1
 128 64 l 1
 64 64 l 1
 64 0 l 1
 0 0 l 1
 0 -64 l 1
 64 -64 l 1
 128 -64 l 1
EndSplineSet
EndChar

StartChar: h
Encoding: 104 104 72
Width: 256
GlyphClass: 2
Flags: W
LayerCount: 2
Fore
SplineSet
128 0 m 1
 192 0 l 1
 192 64 l 1
 192 128 l 1
 192 192 l 1
 128 192 l 1
 128 128 l 1
 64 128 l 1
 64 192 l 1
 0 192 l 1
 0 128 l 1
 0 64 l 1
 0 0 l 1
 64 0 l 1
 64 64 l 1
 128 64 l 1
 128 0 l 1
EndSplineSet
EndChar

StartChar: i
Encoding: 105 105 73
Width: 128
GlyphClass: 2
Flags: W
LayerCount: 2
Fore
SplineSet
0 0 m 1
 64 0 l 1
 64 64 l 1
 64 128 l 1
 64 192 l 1
 0 192 l 1
 0 128 l 1
 0 64 l 1
 0 0 l 1
EndSplineSet
EndChar

StartChar: j
Encoding: 106 106 74
Width: 256
GlyphClass: 2
Flags: W
LayerCount: 2
Fore
SplineSet
128 0 m 1
 192 0 l 1
 192 64 l 1
 192 128 l 1
 192 192 l 1
 128 192 l 1
 128 128 l 1
 128 64 l 1
 64 64 l 1
 64 128 l 1
 0 128 l 1
 0 64 l 1
 0 0 l 1
 64 0 l 1
 128 0 l 1
EndSplineSet
EndChar

StartChar: k
Encoding: 107 107 75
Width: 256
GlyphClass: 2
Flags: W
LayerCount: 2
Fore
SplineSet
128 0 m 1
 192 0 l 1
 192 64 l 1
 128 64 l 1
 128 128 l 1
 192 128 l 1
 192 192 l 1
 128 192 l 1
 128 128 l 1
 64 128 l 1
 64 192 l 1
 0 192 l 1
 0 128 l 1
 0 64 l 1
 0 0 l 1
 64 0 l 1
 64 64 l 1
 128 64 l 1
 128 0 l 1
EndSplineSet
EndChar

StartChar: l
Encoding: 108 108 76
Width: 128
GlyphClass: 2
Flags: W
LayerCount: 2
Fore
SplineSet
0 0 m 1
 64 0 l 1
 64 64 l 1
 64 128 l 1
 64 192 l 1
 64 256 l 1
 0 256 l 1
 0 192 l 1
 0 128 l 1
 0 64 l 1
 0 0 l 1
EndSplineSet
EndChar

StartChar: m
Encoding: 109 109 77
Width: 384
GlyphClass: 2
Flags: W
LayerCount: 2
Fore
SplineSet
256 0 m 1
 320 0 l 1
 320 64 l 1
 320 128 l 1
 320 192 l 1
 256 192 l 1
 192 192 l 1
 128 192 l 1
 64 192 l 1
 0 192 l 1
 0 128 l 1
 0 64 l 1
 0 0 l 1
 64 0 l 1
 64 64 l 1
 64 128 l 1
 128 128 l 1
 128 64 l 1
 128 0 l 1
 192 0 l 1
 192 64 l 1
 192 128 l 1
 256 128 l 1
 256 64 l 1
 256 0 l 1
EndSplineSet
EndChar

StartChar: n
Encoding: 110 110 78
Width: 256
GlyphClass: 2
Flags: W
LayerCount: 2
Fore
SplineSet
128 0 m 1
 192 0 l 1
 192 64 l 1
 192 128 l 1
 192 192 l 1
 128 192 l 1
 64 192 l 1
 0 192 l 1
 0 128 l 1
 0 64 l 1
 0 0 l 1
 64 0 l 1
 64 64 l 1
 64 128 l 1
 128 128 l 1
 128 64 l 1
 128 0 l 1
EndSplineSet
EndChar

StartChar: o
Encoding: 111 111 79
Width: 256
GlyphClass: 2
Flags: W
LayerCount: 2
Fore
SplineSet
128 0 m 1
 192 0 l 1
 192 64 l 1
 192 128 l 1
 192 192 l 1
 128 192 l 1
 64 192 l 1
 0 192 l 1
 0 128 l 1
 0 64 l 1
 0 0 l 1
 64 0 l 1
 128 0 l 1
128 64 m 1
 64 64 l 1
 64 128 l 1
 128 128 l 1
 128 64 l 1
EndSplineSet
EndChar

StartChar: p
Encoding: 112 112 80
Width: 256
GlyphClass: 2
Flags: W
LayerCount: 2
Fore
SplineSet
0 -64 m 1
 64 -64 l 1
 64 0 l 1
 128 0 l 1
 192 0 l 1
 192 64 l 1
 192 128 l 1
 192 192 l 1
 128 192 l 1
 64 192 l 1
 0 192 l 1
 0 128 l 1
 0 64 l 1
 0 0 l 1
 0 -64 l 1
128 64 m 1
 64 64 l 1
 64 128 l 1
 128 128 l 1
 128 64 l 1
EndSplineSet
EndChar

StartChar: q
Encoding: 113 113 81
Width: 256
GlyphClass: 2
Flags: W
LayerCount: 2
Fore
SplineSet
128 -64 m 1
 192 -64 l 1
 192 0 l 1
 192 64 l 1
 192 128 l 1
 192 192 l 1
 128 192 l 1
 64 192 l 1
 0 192 l 1
 0 128 l 1
 0 64 l 1
 0 0 l 1
 64 0 l 1
 128 0 l 1
 128 -64 l 1
128 64 m 1
 64 64 l 1
 64 128 l 1
 128 128 l 1
 128 64 l 1
EndSplineSet
EndChar

StartChar: r
Encoding: 114 114 82
Width: 256
GlyphClass: 2
Flags: W
LayerCount: 2
Fore
SplineSet
0 0 m 1
 64 0 l 1
 64 64 l 1
 64 128 l 1
 128 128 l 1
 192 128 l 1
 192 192 l 1
 128 192 l 1
 64 192 l 1
 0 192 l 1
 0 128 l 1
 0 64 l 1
 0 0 l 1
EndSplineSet
EndChar

StartChar: s
Encoding: 115 115 83
Width: 256
GlyphClass: 2
Flags: W
LayerCount: 2
Fore
SplineSet
64 0 m 1
 128 0 l 1
 128 64 l 1
 128 128 l 1
 192 128 l 1
 192 192 l 1
 128 192 l 1
 64 192 l 1
 64 128 l 1
 64 64 l 1
 0 64 l 1
 0 0 l 1
 64 0 l 1
EndSplineSet
EndChar

StartChar: t
Encoding: 116 116 84
Width: 256
GlyphClass: 2
Flags: W
LayerCount: 2
Fore
SplineSet
64 0 m 1
 128 0 l 1
 128 64 l 1
 128 128 l 1
 192 128 l 1
 192 192 l 1
 128 192 l 1
 64 192 l 1
 0 192 l 1
 0 128 l 1
 64 128 l 1
 64 64 l 1
 64 0 l 1
EndSplineSet
EndChar

StartChar: u
Encoding: 117 117 85
Width: 256
GlyphClass: 2
Flags: W
LayerCount: 2
Fore
SplineSet
128 0 m 1
 192 0 l 1
 192 64 l 1
 192 128 l 1
 192 192 l 1
 128 192 l 1
 128 128 l 1
 128 64 l 1
 64 64 l 1
 64 128 l 1
 64 192 l 1
 0 192 l 1
 0 128 l 1
 0 64 l 1
 0 0 l 1
 64 0 l 1
 128 0 l 1
EndSplineSet
EndChar

StartChar: v
Encoding: 118 118 86
Width: 256
GlyphClass: 2
Flags: W
LayerCount: 2
Fore
SplineSet
64 0 m 1
 128 0 l 1
 128 64 l 1
 192 64 l 1
 192 128 l 1
 192 192 l 1
 128 192 l 1
 128 128 l 1
 128 64 l 1
 64 64 l 1
 64 128 l 1
 64 192 l 1
 0 192 l 1
 0 128 l 1
 0 64 l 1
 64 64 l 1
 64 0 l 1
EndSplineSet
EndChar

StartChar: w
Encoding: 119 119 87
Width: 384
GlyphClass: 2
Flags: W
LayerCount: 2
Fore
SplineSet
256 0 m 1
 320 0 l 1
 320 64 l 1
 320 128 l 1
 320 192 l 1
 256 192 l 1
 256 128 l 1
 256 64 l 1
 192 64 l 1
 192 128 l 1
 192 192 l 1
 128 192 l 1
 128 128 l 1
 128 64 l 1
 64 64 l 1
 64 128 l 1
 64 192 l 1
 0 192 l 1
 0 128 l 1
 0 64 l 1
 0 0 l 1
 64 0 l 1
 128 0 l 1
 192 0 l 1
 256 0 l 1
EndSplineSet
EndChar

StartChar: x
Encoding: 120 120 88
Width: 256
GlyphClass: 2
Flags: W
LayerCount: 2
Fore
SplineSet
128 0 m 1
 192 0 l 1
 192 64 l 1
 128 64 l 1
 128 128 l 1
 192 128 l 1
 192 192 l 1
 128 192 l 1
 128 128 l 1
 64 128 l 1
 64 192 l 1
 0 192 l 1
 0 128 l 1
 64 128 l 1
 64 64 l 1
 0 64 l 1
 0 0 l 1
 64 0 l 1
 64 64 l 1
 128 64 l 1
 128 0 l 1
EndSplineSet
EndChar

StartChar: y
Encoding: 121 121 89
Width: 256
GlyphClass: 2
Flags: W
LayerCount: 2
Fore
SplineSet
64 0 m 1
 128 0 l 1
 128 64 l 1
 192 64 l 1
 192 192 l 1
 128 192 l 1
 128 128 l 1
 64 128 l 1
 64 192 l 1
 0 192 l 1
 0 64 l 1
 64 64 l 1
 64 0 l 1
EndSplineSet
EndChar

StartChar: z
Encoding: 122 122 90
Width: 256
GlyphClass: 2
Flags: W
LayerCount: 2
Fore
SplineSet
128 0 m 1
 192 0 l 1
 192 64 l 1
 128 64 l 1
 128 128 l 1
 128 192 l 1
 64 192 l 1
 0 192 l 1
 0 128 l 1
 64 128 l 1
 64 64 l 1
 64 0 l 1
 128 0 l 1
EndSplineSet
EndChar

StartChar: braceleft
Encoding: 123 123 91
Width: 256
GlyphClass: 2
Flags: W
LayerCount: 2
Fore
SplineSet
128 -64 m 1
 192 -64 l 1
 192 0 l 1
 128 0 l 1
 128 64 l 1
 128 128 l 1
 128 192 l 1
 192 192 l 1
 192 256 l 1
 128 256 l 1
 64 256 l 1
 64 192 l 1
 64 128 l 1
 0 128 l 1
 0 64 l 1
 64 64 l 1
 64 0 l 1
 64 -64 l 1
 128 -64 l 1
EndSplineSet
EndChar

StartChar: bar
Encoding: 124 124 92
Width: 128
GlyphClass: 2
Flags: W
LayerCount: 2
Fore
SplineSet
0 -64 m 1
 64 -64 l 1
 64 0 l 1
 64 64 l 1
 64 128 l 1
 64 192 l 1
 64 256 l 1
 0 256 l 1
 0 192 l 1
 0 128 l 1
 0 64 l 1
 0 0 l 1
 0 -64 l 1
EndSplineSet
EndChar

StartChar: braceright
Encoding: 125 125 93
Width: 256
GlyphClass: 2
Flags: W
LayerCount: 2
Fore
SplineSet
64 -64 m 1
 128 -64 l 1
 128 0 l 1
 128 64 l 1
 192 64 l 1
 192 128 l 1
 128 128 l 1
 128 192 l 1
 128 256 l 1
 64 256 l 1
 0 256 l 1
 0 192 l 1
 64 192 l 1
 64 128 l 1
 64 64 l 1
 64 0 l 1
 0 0 l 1
 0 -64 l 1
 64 -64 l 1
EndSplineSet
EndChar

StartChar: asciitilde
Encoding: 126 126 94
Width: 320
GlyphClass: 2
Flags: W
LayerCount: 2
Fore
SplineSet
128 64 m 1
 192 64 l 1
 192 128 l 1
 256 128 l 1
 256 192 l 1
 192 192 l 1
 192 128 l 1
 128 128 l 1
 128 192 l 1
 64 192 l 1
 64 128 l 1
 0 128 l 1
 0 64 l 1
 64 64 l 1
 64 128 l 1
 128 128 l 1
 128 64 l 1
EndSplineSet
EndChar

StartChar: exclamdown
Encoding: 161 161 96
Width: 128
GlyphClass: 2
Flags: W
LayerCount: 2
Fore
SplineSet
0 0 m 1
 64 0 l 1
 64 64 l 1
 64 128 l 1
 64 192 l 1
 0 192 l 1
 0 128 l 1
 0 64 l 1
 0 0 l 1
0 256 m 1
 64 256 l 1
 64 320 l 1
 0 320 l 1
 0 256 l 1
EndSplineSet
EndChar
